<?xml version="1.0" encoding="UTF-8"?>
<svg width="300px" height="95px" viewBox="0 0 300 95" version="1.1" xmlns="http://www.w3.org/2000/svg" xmlns:xlink="http://www.w3.org/1999/xlink">
    <title>look主播</title>
    <defs>
        <linearGradient x1="38.587884%" y1="72.3732474%" x2="49.5966844%" y2="-48.6133846%" id="linearGradient-1">
            <stop stop-color="#FF2C55" offset="0%"></stop>
            <stop stop-color="#FFA8A8" offset="100%"></stop>
        </linearGradient>
        <path d="M145.764739,43.4028762 C145.764739,46.2064732 148.037886,48.4822263 150.84511,48.4822263 L150.84511,48.4822263 C153.651313,48.4822263 155.925481,46.2064732 155.925481,43.4028762 L155.925481,43.4028762 C155.925481,40.5972372 153.651313,38.3214842 150.84511,38.3214842 L150.84511,38.3214842 C148.037886,38.3214842 145.764739,40.5972372 145.764739,43.4028762 L145.764739,43.4028762 Z" id="path-2"></path>
    </defs>
    <g id="look主播" stroke="none" stroke-width="1" fill="none" fill-rule="evenodd">
        <circle id="椭圆形备份-21" fill-opacity="0.1" fill="#FF2C55" cx="73.8357488" cy="64.3043478" r="2.41545894"></circle>
        <circle id="椭圆形备份-6" fill-opacity="0.15" fill="#FF2C55" cx="212.774155" cy="60.5809179" r="3.77415459"></circle>
        <circle id="椭圆形备份-7" fill-opacity="0.15" fill="#FF2C55" cx="84.7741546" cy="31.5809179" r="4"></circle>
        <circle id="椭圆形备份-8" fill-opacity="0.1" fill="#FF2C55" cx="227.519324" cy="37.281401" r="2.41545894"></circle>
        <circle id="椭圆形备份-10" fill-opacity="0.06" fill="#FF2C55" cx="261.033816" cy="45.8864734" r="1.8115942"></circle>
        <circle id="椭圆形备份-11" fill-opacity="0.06" fill="#FF2C55" cx="41.2270531" cy="41.3574879" r="1.8115942"></circle>
        <path d="M120.084414,37.2195818 C119.863157,37.8039982 120.090394,38.4666041 120.607658,38.8134448 L120.607658,38.8134448 L133.944895,47.7571212 L120.608655,56.6987928 C120.091391,57.0456334 119.864153,57.7102442 120.085411,58.2956631 L120.085411,58.2956631 C124.546439,70.1383658 136.297998,78.3733246 149.833569,77.4410651 L149.833569,77.4410651 C164.463467,76.4336234 176.306719,64.4886729 177.269487,49.7710022 L177.269487,49.7710022 C178.405674,32.4259637 164.752497,18 147.75056,18 L147.75056,18 C135.102012,18 124.314218,25.9883611 120.084414,37.2195818 L120.084414,37.2195818 Z M149.149324,34.0547569 C155.465435,34.7617256 160.584023,39.9475076 161.281831,46.3465326 L161.281831,46.3465326 C162.200629,54.774689 155.712306,61.9089212 147.578509,61.9089212 L147.578509,61.9089212 C139.96334,61.9089212 133.789579,55.6541137 133.789579,47.9379686 L133.789579,47.9379686 C133.789579,39.697396 140.830375,33.1249064 149.149324,34.0547569 L149.149324,34.0547569 Z" id="Clip-2" fill="url(#linearGradient-1)"></path>
        <g id="Clip-5">
            <use fill="#FFFFFF" xlink:href="#path-2"></use>
            <use fill="#37006B" xlink:href="#path-2"></use>
        </g>
    </g>
</svg>