<?xml version="1.0" encoding="UTF-8"?>
<svg width="300px" height="95px" viewBox="0 0 300 95" version="1.1" xmlns="http://www.w3.org/2000/svg" xmlns:xlink="http://www.w3.org/1999/xlink">
    <title>网易音乐人</title>
    <defs>
        <linearGradient x1="50%" y1="0%" x2="50%" y2="100%" id="linearGradient-1">
            <stop stop-color="#FF7F7F" offset="0%"></stop>
            <stop stop-color="#FF3A3A" offset="100%"></stop>
        </linearGradient>
    </defs>
    <g id="网易音乐人" stroke="none" stroke-width="1" fill="none" fill-rule="evenodd">
        <path d="M84.558582,36.4971516 C84.5656902,36.5362812 84.583813,36.6242356 84.6141734,36.7540962 C84.6666663,36.9786243 84.7338662,37.2316025 84.8169013,37.5060469 C85.0543669,38.2909094 85.3687879,39.0820631 85.766374,39.8228299 C86.340007,40.8916005 87.036089,41.7575972 87.8515643,42.3500921 C88.3436515,42.7076249 88.4464429,43.3838935 88.0811554,43.8605803 C87.7158678,44.3372672 87.0208282,44.4338606 86.528741,44.0763278 C85.5956886,43.3984057 84.8139053,42.504043 84.1630252,41.4457214 L83.1891951,51.7049215 L83.1839324,51.7368647 L83.1679586,51.8786941 C82.8515823,54.1442834 80.7481236,55.7897435 78.369816,55.5869815 C75.9200476,55.3781042 74.1059852,53.2863693 74.3189059,50.9145633 C74.5317958,48.5433467 76.6910743,46.7897846 79.1408447,46.998639 C79.9560252,47.0681447 80.7007099,47.3460857 81.3237473,47.773391 L82.3601889,36.5829668 C82.4702295,35.3251968 84.3324815,35.252503 84.558582,36.4971516 Z" id="形状结合备份-3" fill-opacity="0.2" fill="#FF3A3A" fill-rule="nonzero" transform="translate(81.301932, 45.603865) rotate(-14.000000) translate(-81.301932, -45.603865) "></path>
        <path d="M225.704649,52.7864934 L225.672813,52.8343978 C225.878138,54.0892608 226.39139,57.5244544 227.21257,63.1399786 C227.24809,63.2630002 227.276267,63.3899845 227.297257,63.5199211 C227.584961,65.301143 226.413828,66.9626787 224.681165,67.2314811 C222.948926,67.5001854 221.310969,66.2744209 221.023233,64.493204 C220.7356,62.7124232 221.907091,61.0503797 223.639324,60.781644 C224.210146,60.6930983 224.77065,60.7668174 225.275966,60.9691708 L224.1682,53.7422007 C222.854136,54.3664172 220.467737,55.4788155 217.009004,57.0793956 C217.204264,58.2641269 217.721901,61.7259719 218.561217,67.4655211 C218.596737,67.5885427 218.624914,67.7155271 218.645904,67.8454636 C218.933608,69.6266856 217.762475,71.2882213 216.029812,71.5570236 C214.297573,71.8257279 212.659616,70.5999634 212.37188,68.8187465 C212.084247,67.0379658 213.255738,65.3759223 214.987971,65.1071866 C215.558793,65.0186408 216.119297,65.0923599 216.624613,65.2947133 L215.373311,57.15356 C215.345084,57.116772 215.31984,57.0769427 215.298074,57.0342236 C215.099757,56.6450052 215.265175,56.1632817 215.667544,55.9582641 L224.112297,51.962409 C224.286484,51.713473 224.598391,51.5876421 224.891264,51.6319183 C225.531023,51.5276004 226.022452,52.230723 225.704649,52.7864934 Z" id="形状结合" fill-opacity="0.2" fill="#FF3A3A" fill-rule="nonzero"></path>
        <circle id="椭圆形备份-2" fill-opacity="0.06" fill="#FF3A3A" cx="200.811594" cy="23.8115942" r="1.8115942"></circle>
        <circle id="椭圆形备份-3" fill-opacity="0.06" fill="#FF3A3A" cx="255.335749" cy="66.968599" r="1.8115942"></circle>
        <circle id="椭圆形备份" fill-opacity="0.1" fill="#FF3A3A" cx="106.415459" cy="15.4154589" r="2.41545894"></circle>
        <circle id="椭圆形备份-5" fill-opacity="0.06" fill="#FF3A3A" cx="70.8115942" cy="77.8115942" r="1.8115942"></circle>
        <circle id="椭圆形备份-9" fill-opacity="0.06" fill="#FF3A3A" cx="44.8115942" cy="51.8115942" r="1.8115942"></circle>
        <path d="M150,19 C166.568542,19 180,32.4314575 180,49 C180,65.5685425 166.568542,79 150,79 C133.431458,79 120,65.5685425 120,49 C120,32.4314575 133.431458,19 150,19 Z M154.629812,29.4997227 C153.661483,29.4997227 152.876652,30.2850163 152.876652,31.2528826 L152.876839,31.2845811 C152.8769,31.2950505 152.876976,31.3080645 152.877067,31.3235505 L152.877775,31.44555 C152.88445,32.5993949 152.918848,38.676612 152.926146,42.605818 L152.92694,43.1055604 C152.927045,43.1866269 152.927136,43.2665328 152.927213,43.3452058 L152.927495,43.8018651 L152.927495,43.8018651 C152.782361,43.8023273 149.340751,43.0415308 146.792591,44.4230744 C144.32994,45.7583971 143.339888,47.6405134 143.339888,49.8817663 C143.339888,52.4840047 146.31744,54.6970628 149.557989,54.2214494 C153.518199,53.6395279 156.352928,51.0983012 156.352928,45.8152488 L156.352928,33.7201558 C162.066297,36.2276413 166.058399,41.9303797 166.058399,48.5700163 C166.058399,57.5257837 158.798015,64.7866297 149.841786,64.7866297 C140.885556,64.7866297 133.625172,57.5257837 133.625172,48.5700163 C133.625172,41.1991645 138.544466,34.9810628 145.277469,33.0092779 L145.277469,33.0083535 C146.047972,32.823932 146.62296,32.1347779 146.62296,31.3074233 C146.62296,30.3390948 145.838129,29.5542634 144.8698,29.5542634 C144.73576,29.5542634 144.606341,29.5727517 144.48062,29.6014087 L144.479696,29.5972488 C136.197367,31.9337169 130.125324,39.5402953 130.125324,48.5700163 C130.125324,59.4592052 138.952597,68.2864785 149.841786,68.2864785 C160.730975,68.2864785 169.55871,59.4592052 169.55871,48.5700163 C169.55871,39.5005453 163.43305,31.8662343 155.094794,29.5662808 L155.085088,29.5635076 C154.936257,29.5223709 154.791585,29.4997227 154.629812,29.4997227 Z" id="形状结合" fill="url(#linearGradient-1)" fill-rule="nonzero"></path>
    </g>
</svg>