<?xml version="1.0" encoding="UTF-8"?>
<svg width="300px" height="95px" viewBox="0 0 300 95" version="1.1" xmlns="http://www.w3.org/2000/svg" xmlns:xlink="http://www.w3.org/1999/xlink">
    <title>云音乐达人</title>
    <defs>
        <linearGradient x1="50%" y1="0%" x2="50%" y2="100%" id="linearGradient-1">
            <stop stop-color="#FFDD7F" offset="0%"></stop>
            <stop stop-color="#FFBD20" offset="100%"></stop>
        </linearGradient>
    </defs>
    <g id="云音乐达人" stroke="none" stroke-width="1" fill="none" fill-rule="evenodd">
        <rect id="矩形备份-3" fill-opacity="0" fill="#D8D8D8" x="0" y="0" width="300" height="95"></rect>
        <path d="M242.375861,62.0804625 C244.125397,62.0804625 245.543676,63.4987416 245.543676,65.2482775 C245.543676,66.9978134 244.125397,68.4160925 242.375861,68.4160925 C240.626325,68.4160925 239.208046,66.9978134 239.208046,65.2482775 C239.208046,63.4987416 240.626325,62.0804625 242.375861,62.0804625 Z M30.5839075,58.0804625 C31.8960594,58.0804625 32.9597687,59.1441718 32.9597687,60.4563238 C32.9597687,61.7684757 31.8960594,62.832185 30.5839075,62.832185 C29.2717556,62.832185 28.2080463,61.7684757 28.2080463,60.4563238 C28.2080463,59.1441718 29.2717556,58.0804625 30.5839075,58.0804625 Z M269.583907,39.5706819 C270.896059,39.5706819 271.959769,40.6343912 271.959769,41.9465431 C271.959769,43.2586951 270.896059,44.3224044 269.583907,44.3224044 C268.271756,44.3224044 267.208046,43.2586951 267.208046,41.9465431 C267.208046,40.6343912 268.271756,39.5706819 269.583907,39.5706819 Z M60.3758612,23.0804625 C62.1253972,23.0804625 63.5436762,24.4987416 63.5436762,26.2482775 C63.5436762,27.9978134 62.1253972,29.4160925 60.3758612,29.4160925 C58.6263253,29.4160925 57.2080463,27.9978134 57.2080463,26.2482775 C57.2080463,24.4987416 58.6263253,23.0804625 60.3758612,23.0804625 Z" id="形状结合" fill-opacity="0.15" fill="#F7B500" fill-rule="nonzero"></path>
        <path d="M221.114904,30.5954387 C221.711221,30.711351 222.100666,31.2887265 221.984754,31.8850432 L218.679181,48.890741 C218.563269,49.4870577 217.985893,49.8765025 217.389576,49.7605902 C216.79326,49.644678 216.403815,49.0673024 216.519727,48.4709858 L219.8253,31.4652879 C219.941212,30.8689713 220.518588,30.4795265 221.114904,30.5954387 Z M224.945956,35.6232304 C225.542273,35.7391426 225.931718,36.3165182 225.815806,36.9128349 L224.031846,46.0905131 C223.915933,46.6868298 223.338558,47.0762745 222.742241,46.9603623 C222.145924,46.8444501 221.75648,46.2670745 221.872392,45.6707578 L223.656352,36.4930796 C223.772264,35.896763 224.34964,35.5073182 224.945956,35.6232304 Z M216.16915,33.8566489 C216.765467,33.9725612 217.154912,34.5499367 217.038999,35.1462534 L215.255039,44.3239316 C215.139127,44.9202483 214.561752,45.309693 213.965435,45.1937808 C213.369118,45.0778686 212.979673,44.500493 213.095586,43.9041763 L214.879546,34.7264981 C214.995458,34.1301815 215.572833,33.7407367 216.16915,33.8566489 Z M228.657716,38.8478668 C229.254032,38.963779 229.643477,39.5411546 229.527565,40.1374713 L228.792993,43.9165153 C228.677081,44.5128319 228.099705,44.9022767 227.503388,44.7863645 C226.907072,44.6704523 226.517627,44.0930767 226.633539,43.49676 L227.368111,39.717716 C227.484023,39.1213994 228.061399,38.7319546 228.657716,38.8478668 Z M211.614024,35.5207254 C212.210341,35.6366376 212.599786,36.2140132 212.483874,36.8103299 L211.749302,40.5893739 C211.63339,41.1856905 211.056014,41.5751353 210.459697,41.4592231 C209.863381,41.3433109 209.473936,40.7659353 209.589848,40.1696186 L210.32442,36.3905746 C210.440332,35.794258 211.017708,35.4048132 211.614024,35.5207254 Z" id="形状结合" fill="#FFBD20" fill-rule="nonzero" opacity="0.351119"></path>
        <path d="M72.7718188,49.6460559 C79.5872943,47.02984 82.3748327,48.0596228 84.6598339,54.0463681 C86.9449133,59.9992033 85.5662427,62.6055331 78.7507672,65.221749 C71.9689328,67.8250513 69.2004528,66.8106634 66.9153734,60.8578282 C64.618959,54.8754641 65.978894,52.2536155 72.7718188,49.6460559 Z M73.8577379,54.9140938 C73.040091,54.7496761 72.6089774,55.2486912 72.9095201,56.0316316 L72.9095201,56.0316316 L74.5755579,60.3718084 C74.8753039,61.1526736 75.5263809,61.2425057 76.0279997,60.5678191 L76.0279997,60.5678191 L78.4942279,57.2506968 C78.9918411,56.581398 78.7343197,55.8947087 77.9100907,55.7289674 L77.9100907,55.7289674 Z" id="形状结合" fill-opacity="0.35" fill="#FFBD20" fill-rule="nonzero"></path>
        <path d="M149.951441,19 C166.493165,19 179.902882,32.409717 179.902882,48.9514412 C179.902882,65.4931654 166.493165,78.9028825 149.951441,78.9028825 C133.409717,78.9028825 120,65.4931654 120,48.9514412 C120,32.409717 133.409717,19 149.951441,19 Z M150.367186,28.3072898 C149.815139,28.0776803 149.181481,28.3390679 148.951871,28.8911153 L148.951871,28.8911153 L144.009749,40.7734028 L131.181822,41.8018118 C130.896712,41.824669 130.632234,41.9594274 130.446159,42.1766509 C130.057195,42.6307259 130.109978,43.3141437 130.564053,43.7031073 L130.564053,43.7031073 L140.33758,52.0751739 L137.351608,64.5930532 C137.285243,64.8712719 137.331677,65.1644483 137.480769,65.4085419 C137.792424,65.9187852 138.458703,66.0797731 138.968947,65.7681185 L138.968947,65.7681185 L149.951441,59.0600526 L160.933936,65.7681185 C161.178029,65.9172099 161.471206,65.9636445 161.749424,65.8972792 C162.331001,65.7585518 162.690002,65.17463 162.551274,64.5930532 L162.551274,64.5930532 L159.565302,52.0751739 L169.338829,43.7031073 C169.556053,43.5170323 169.690811,43.252554 169.713668,42.9674443 C169.761448,42.3714628 169.317042,41.8495914 168.721061,41.8018118 L168.721061,41.8018118 L155.893134,40.7734028 L150.951011,28.8911153 C150.841169,28.6270231 150.631278,28.4171319 150.367186,28.3072898 Z" id="形状结合" fill="url(#linearGradient-1)" fill-rule="nonzero"></path>
    </g>
</svg>